<svg width="203" height="39" viewBox="0 0 203 39" fill="none" xmlns="http://www.w3.org/2000/svg">
<path d="M1.76136 31H7.38636V21.6477H16.5568V31H22.1705V7.72727H16.5568V17.0682H7.38636V7.72727H1.76136V31ZM22.7218 12.2955H29.79V31H35.3354V12.2955H42.3923V7.72727H22.7218V12.2955ZM42.1623 12.2955H49.2305V31H54.776V12.2955H61.8328V7.72727H42.1623V12.2955ZM62.3642 31H67.9893V23.7727H71.8074C77.137 23.7727 80.4665 20.6136 80.4665 15.7841C80.4665 11 77.2052 7.72727 71.9779 7.72727H62.3642V31ZM67.9893 19.3409V12.2614H70.762C73.2847 12.2614 74.637 13.625 74.637 15.7841C74.637 17.9318 73.2847 19.3409 70.762 19.3409H67.9893Z" fill="white"/>
<path d="M91.0909 31H104.307V29.0909H93.2159V7.72727H91.0909V31Z" fill="white"/>
<path d="M116.727 31.3636C120.227 31.3636 122.58 29.4659 123.375 27.2727L121.455 26.6477C120.784 28.2159 119.205 29.5114 116.727 29.5114C113.159 29.5114 110.898 26.9091 110.807 22.875H123.807V21.875C123.807 16.0455 120.205 13.3068 116.42 13.3068C111.898 13.3068 108.773 17.0909 108.773 22.375C108.773 27.6705 111.841 31.3636 116.727 31.3636ZM110.818 21.0909C111.034 17.8409 113.227 15.1477 116.42 15.1477C119.545 15.1477 121.739 17.7273 121.739 21.0909H110.818ZM133.613 31.3977C136.522 31.3977 138.295 29.7841 139.022 28.2386H139.147V31H141.17V19.1477C141.17 14.4659 137.647 13.3068 134.977 13.3068C132.306 13.3068 129.556 14.3636 128.375 17.2159L130.295 17.9091C130.931 16.4091 132.511 15.125 135.034 15.125C137.681 15.125 139.147 16.5795 139.147 18.9659V19.375C139.147 20.6932 137.511 20.7159 134.579 21.0795C130.636 21.5682 127.875 22.6705 127.875 26.125C127.875 29.4886 130.443 31.3977 133.613 31.3977ZM133.886 29.5455C131.602 29.5455 129.897 28.3295 129.897 26.2159C129.897 24.1023 131.625 23.2159 134.579 22.8523C136.011 22.6818 138.556 22.3636 139.147 21.7841V24.3068C139.147 27.1705 137.113 29.5455 133.886 29.5455ZM153.684 37.9091C157.82 37.9091 160.888 35.8864 160.888 31.4545V13.5455H158.911V16.875H158.707C157.991 15.3068 156.548 13.3068 153.343 13.3068C149.025 13.3068 146.127 16.9205 146.127 22.2273C146.127 27.5795 149.127 30.8182 153.309 30.8182C156.445 30.8182 157.979 29 158.673 27.3977H158.854V31.3295C158.854 34.5795 156.775 36.0909 153.684 36.0909C150.695 36.0909 149.263 34.6477 148.525 33.3182L146.866 34.4091C147.888 36.4091 150.116 37.9091 153.684 37.9091ZM153.548 28.9659C150.082 28.9659 148.161 26.1932 148.161 22.1932C148.161 18.2614 150.048 15.1477 153.548 15.1477C156.968 15.1477 158.888 18.1023 158.888 22.1932C158.888 26.4091 156.911 28.9659 153.548 28.9659ZM177.809 24.3295C177.809 27.5341 175.399 29.2614 173.036 29.2614C170.513 29.2614 168.74 27.4545 168.74 24.7273V13.5455H166.718V24.8523C166.718 28.9886 169.104 31.2273 172.456 31.2273C175.013 31.2273 176.831 29.8977 177.649 28.1023H177.809V31H179.831V13.5455H177.809V24.3295ZM192.717 31.3636C196.217 31.3636 198.57 29.4659 199.365 27.2727L197.445 26.6477C196.774 28.2159 195.195 29.5114 192.717 29.5114C189.149 29.5114 186.888 26.9091 186.797 22.875H199.797V21.875C199.797 16.0455 196.195 13.3068 192.41 13.3068C187.888 13.3068 184.763 17.0909 184.763 22.375C184.763 27.6705 187.831 31.3636 192.717 31.3636ZM186.808 21.0909C187.024 17.8409 189.217 15.1477 192.41 15.1477C195.535 15.1477 197.729 17.7273 197.729 21.0909H186.808Z" fill="white"/>
</svg>
